<svg width="37" height="36" viewBox="0 0 37 36" fill="none" xmlns="http://www.w3.org/2000/svg">
<rect x="0.0402832" width="36" height="36" rx="8" fill="#4169E2" fill-opacity="0.1"/>
<path d="M9.04028 11.4198C9.04028 10.8426 9.24299 10.3664 9.64839 9.99124C10.0538 9.61605 10.5808 9.42847 11.2295 9.42847C11.8665 9.42847 12.382 9.61316 12.7758 9.98258C13.1812 10.3635 13.3839 10.8599 13.3839 11.4718C13.3839 12.0259 13.187 12.4876 12.7932 12.857C12.3878 13.238 11.855 13.4285 11.1947 13.4285H11.1773C10.5403 13.4285 10.0248 13.238 9.63102 12.857C9.23719 12.4761 9.04028 11.997 9.04028 11.4198ZM9.26615 26.5713V15.0042H13.1233V26.5713H9.26615ZM15.2604 26.5713H19.1175V20.1124C19.1175 19.7084 19.1638 19.3967 19.2565 19.1774C19.4187 18.7849 19.6648 18.453 19.9949 18.1817C20.325 17.9104 20.7391 17.7748 21.2372 17.7748C22.5345 17.7748 23.1831 18.6464 23.1831 20.3895V26.5713H27.0403V19.9393C27.0403 18.2308 26.6349 16.935 25.8241 16.0518C25.0132 15.1687 23.9418 14.7272 22.6098 14.7272C21.1156 14.7272 19.9515 15.3679 19.1175 16.6492V16.6839H19.1001L19.1175 16.6492V15.0042H15.2604C15.2835 15.3736 15.2951 16.5222 15.2951 18.4501C15.2951 20.378 15.2835 23.085 15.2604 26.5713Z" fill="#4169E2"/>
</svg>
