<svg width="287" height="46" viewBox="0 0 287 46" fill="none" xmlns="http://www.w3.org/2000/svg">
<g clip-path="url(#clip0_134_113)">
<path d="M95.9202 46H26.0056L0.0402832 0H69.7864L80.2098 17.9041H31.2661L37.2001 28.1004H85.8469L95.9202 46Z" fill="#4169E1"/>
<path d="M61.7563 25.2661H39.8991L37.2888 20.644H59.0662L61.7563 25.2661Z" fill="#4169E1"/>
<path d="M106.871 0.404297H119.816V3.84048H110.93V8.22443H117.467V11.5259H110.93V15.8829H119.816V19.319H106.871V0.404297Z" fill="#020202"/>
<path d="M121.792 0.404297H125.741L133.536 12.6308V0.404297H137.592V19.3146H133.669L125.847 7.08802V19.3146H121.792V0.404297Z" fill="#020202"/>
<path d="M139.834 16.5836L148.963 3.84048H140.078V0.404297H153.984V3.16223L144.908 15.8784H154.516V19.3146H139.838V16.5836H139.834Z" fill="#020202"/>
<path d="M160.211 18.4746C158.691 17.6436 157.494 16.4847 156.621 14.9979C155.748 13.5112 155.314 11.7998 155.314 9.87286C155.314 7.9459 155.748 6.23006 156.621 4.7343C157.494 3.23855 158.691 2.07519 160.211 1.24421C161.731 0.413241 163.428 0 165.294 0C167.16 0 168.848 0.413241 170.351 1.24421C171.853 2.07519 173.041 3.23855 173.914 4.7343C174.787 6.23006 175.221 7.9459 175.221 9.87286C175.221 11.7998 174.787 13.5112 173.914 14.9979C173.041 16.4847 171.853 17.6436 170.351 18.4746C168.848 19.3055 167.16 19.7188 165.294 19.7188C163.428 19.7188 161.731 19.3055 160.211 18.4746ZM168.219 15.1866C169.101 14.6925 169.797 13.9873 170.315 13.0755C170.829 12.1637 171.091 11.0946 171.091 9.86837C171.091 8.64212 170.838 7.60004 170.329 6.68821C169.823 5.77639 169.128 5.07568 168.246 4.57709C167.364 4.083 166.38 3.83146 165.299 3.83146C164.217 3.83146 163.202 4.07851 162.325 4.57709C161.443 5.07118 160.747 5.77639 160.229 6.68821C159.71 7.60004 159.453 8.66009 159.453 9.86837C159.453 11.0767 159.71 12.1637 160.229 13.0755C160.743 13.9873 161.447 14.688 162.338 15.1866C163.229 15.6807 164.217 15.9322 165.299 15.9322C166.38 15.9322 167.342 15.6852 168.219 15.1866Z" fill="#020202"/>
<path d="M193.746 0.404297H197.721L205.166 19.3146H201.031L199.432 15.2046H192.04L190.44 19.3146H186.278L193.746 0.404297ZM198.364 11.9301L195.722 4.73434L193.081 11.9301H198.364Z" fill="#020202"/>
<path d="M207.413 0.404297H213.897C215.926 0.404297 217.695 0.781604 219.206 1.54071C220.717 2.29981 221.883 3.38233 222.702 4.78824C223.522 6.19416 223.93 7.85611 223.93 9.7651C223.93 12.9048 223.026 15.281 221.222 16.8935C219.414 18.506 216.901 19.3146 213.684 19.3146H207.413V0.404297ZM213.897 15.8784C215.802 15.8784 217.26 15.3394 218.275 14.2568C219.29 13.1743 219.795 11.6786 219.795 9.7651C219.795 8.62869 219.574 7.60906 219.126 6.70622C218.683 5.80338 218.031 5.10267 217.176 4.5951C216.321 4.09202 215.315 3.83599 214.158 3.83599H211.464V15.8739H213.892L213.897 15.8784Z" fill="#020202"/>
<path d="M231.38 0.404297H235.355L242.8 19.3146H238.665L237.066 15.2046H229.674L228.074 19.3146H223.912L231.38 0.404297ZM235.998 11.9301L233.356 4.73434L230.715 11.9301H235.998Z" fill="#020202"/>
<path d="M244.378 0.404297H248.38L254.119 13.0665L259.884 0.404297H263.86V19.3146H259.991V8.57479L255.054 19.3146H253.184L248.273 8.57479V19.3146H244.378V0.404297Z" fill="#020202"/>
<path d="M271.026 18.4746C269.506 17.6436 268.309 16.4847 267.436 14.9979C266.563 13.5112 266.129 11.7998 266.129 9.87286C266.129 7.9459 266.563 6.23006 267.436 4.7343C268.309 3.23855 269.506 2.07519 271.026 1.24421C272.546 0.413241 274.243 0 276.109 0C277.975 0 279.663 0.413241 281.165 1.24421C282.668 2.07519 283.855 3.23855 284.729 4.7343C285.602 6.23006 286.036 7.9459 286.036 9.87286C286.036 11.7998 285.602 13.5112 284.729 14.9979C283.855 16.4847 282.668 17.6436 281.165 18.4746C279.663 19.3055 277.975 19.7188 276.109 19.7188C274.243 19.7188 272.546 19.3055 271.026 18.4746ZM279.034 15.1866C279.916 14.6925 280.611 13.9873 281.13 13.0755C281.644 12.1637 281.906 11.0946 281.906 9.86837C281.906 8.64212 281.653 7.60004 281.143 6.68821C280.638 5.77639 279.942 5.07568 279.06 4.57709C278.178 4.083 277.195 3.83146 276.113 3.83146C275.032 3.83146 274.017 4.07851 273.14 4.57709C272.258 5.07118 271.562 5.77639 271.043 6.68821C270.525 7.60004 270.268 8.66009 270.268 9.86837C270.268 11.0767 270.525 12.1637 271.043 13.0755C271.558 13.9873 272.262 14.688 273.153 15.1866C274.044 15.6807 275.032 15.9322 276.113 15.9322C277.195 15.9322 278.156 15.6852 279.034 15.1866Z" fill="#020202"/>
<path d="M111.143 44.7962C109.614 43.9922 108.431 42.8513 107.593 41.3735C106.756 39.8957 106.339 38.1529 106.339 36.1541C106.339 34.1553 106.756 32.408 107.593 30.9212C108.431 29.4345 109.614 28.2891 111.143 27.485C112.672 26.681 114.436 26.2812 116.426 26.2812C119.005 26.2812 121.159 26.8742 122.883 28.0645V31.9588C122.098 31.294 121.207 30.8089 120.201 30.5125C119.195 30.216 118.052 30.0678 116.771 30.0678C114.83 30.0678 113.297 30.6113 112.167 31.7028C111.037 32.7943 110.474 34.2766 110.474 36.1541C110.474 38.0317 111.041 39.5409 112.18 40.6324C113.319 41.7239 114.848 42.2674 116.771 42.2674C118.088 42.2674 119.253 42.1102 120.268 41.7958C121.283 41.4813 122.227 40.9693 123.095 40.2686V44.1629C121.46 45.3892 119.235 46.0045 116.421 46.0045C114.427 46.0045 112.668 45.6048 111.139 44.8007L111.143 44.7962Z" fill="#020202"/>
<path d="M129.065 44.7558C127.545 43.9248 126.348 42.766 125.475 41.2792C124.602 39.7924 124.168 38.0811 124.168 36.1541C124.168 34.2272 124.602 32.5113 125.475 31.0156C126.348 29.5198 127.545 28.3564 129.065 27.5255C130.585 26.6945 132.282 26.2812 134.148 26.2812C136.014 26.2812 137.702 26.6945 139.205 27.5255C140.707 28.3564 141.895 29.5198 142.768 31.0156C143.641 32.5113 144.075 34.2272 144.075 36.1541C144.075 38.0811 143.641 39.7924 142.768 41.2792C141.895 42.766 140.707 43.9248 139.205 44.7558C137.702 45.5868 136.014 46 134.148 46C132.282 46 130.585 45.5868 129.065 44.7558ZM137.073 41.4679C137.955 40.9738 138.651 40.2686 139.169 39.3567C139.683 38.4449 139.945 37.3759 139.945 36.1496C139.945 34.9234 139.692 33.8813 139.183 32.9695C138.677 32.0576 137.982 31.3569 137.1 30.8583C136.218 30.3642 135.234 30.1127 134.153 30.1127C133.071 30.1127 132.056 30.3598 131.174 30.8583C130.293 31.3524 129.597 32.0576 129.078 32.9695C128.564 33.8813 128.303 34.9413 128.303 36.1496C128.303 37.3579 128.56 38.4449 129.078 39.3567C129.592 40.2686 130.297 40.9693 131.188 41.4679C132.079 41.9619 133.067 42.2135 134.153 42.2135C135.238 42.2135 136.196 41.9664 137.073 41.4679Z" fill="#020202"/>
<path d="M146.322 26.6855H150.271L158.066 38.9121V26.6855H162.121V45.5958H158.199L150.377 33.3693V45.5958H146.322V26.6855Z" fill="#020202"/>
<path d="M167.111 45.6765C165.99 45.4609 165.073 45.1734 164.364 44.8096V41.1847C165.307 41.6519 166.287 42.0067 167.297 42.2403C168.312 42.4739 169.283 42.5906 170.205 42.5906C171.237 42.5906 172.017 42.411 172.553 42.0516C173.085 41.6923 173.355 41.1847 173.355 40.5379C173.355 40.0708 173.222 39.671 172.957 39.3476C172.691 39.0242 172.301 38.7322 171.795 38.4672C171.29 38.2067 170.51 37.8608 169.46 37.4251C167.714 36.702 166.451 35.8979 165.671 35.0041C164.886 34.1102 164.496 33.0053 164.496 31.6892C164.496 30.6246 164.78 29.6814 165.352 28.8639C165.919 28.0419 166.721 27.4085 167.754 26.9549C168.786 26.5057 169.978 26.2766 171.33 26.2766C172.434 26.2766 173.413 26.3664 174.264 26.5461C175.119 26.7258 175.952 27.0043 176.772 27.3861V30.9031C175.208 30.1081 173.639 29.7128 172.075 29.7128C171.078 29.7128 170.293 29.888 169.726 30.2383C169.154 30.5887 168.871 31.0918 168.871 31.7386C168.871 32.2057 169.004 32.5965 169.269 32.9019C169.535 33.2074 169.912 33.4814 170.391 33.7149C170.869 33.9485 171.654 34.2944 172.739 34.7436C174.002 35.2826 174.991 35.8036 175.7 36.2977C176.413 36.7918 176.936 37.3802 177.273 38.054C177.61 38.7322 177.778 39.5632 177.778 40.5559C177.778 42.2717 177.167 43.6058 175.948 44.558C174.729 45.5148 172.908 45.9909 170.488 45.9909C169.349 45.9909 168.219 45.8831 167.098 45.6675L167.111 45.6765Z" fill="#020202"/>
<path d="M182.006 43.826C180.619 42.3751 179.923 40.4212 179.923 37.9687V26.6899H183.978V38.0226C183.978 39.3926 184.35 40.4392 185.099 41.1624C185.848 41.8855 186.868 42.2449 188.171 42.2449C189.473 42.2449 190.462 41.8855 191.202 41.1624C191.942 40.4392 192.31 39.3971 192.31 38.0226V26.6899H196.365V37.9687C196.365 40.4212 195.678 42.3751 194.308 43.826C192.939 45.2768 190.892 46.0045 188.171 46.0045C185.449 46.0045 183.393 45.2768 182.006 43.826Z" fill="#020202"/>
<path d="M199.033 26.6855H203.088V42.1596H211.628V45.5958H199.028V26.6855H199.033Z" fill="#020202"/>
<path d="M215.554 30.1217H210.107V26.6855H225.056V30.1217H219.609V45.5958H215.554V30.1217Z" fill="#020202"/>
<path d="M226.842 26.6855H230.897V45.5958H226.842V26.6855Z" fill="#020202"/>
<path d="M233.702 26.6855H237.651L245.446 38.9121V26.6855H249.501V45.5958H245.579L237.757 33.3693V45.5958H233.702V26.6855Z" fill="#020202"/>
<path d="M256.547 44.7962C255.018 43.9922 253.835 42.8513 252.998 41.3735C252.16 39.8957 251.743 38.1529 251.743 36.1541C251.743 34.1553 252.16 32.408 252.998 30.9212C253.835 29.4345 255.018 28.2891 256.547 27.485C258.076 26.681 259.84 26.2812 261.83 26.2812C263.182 26.2812 264.378 26.4205 265.42 26.699C266.461 26.9775 267.418 27.4177 268.287 28.0106V31.9319C267.503 31.2806 266.607 30.8089 265.606 30.5125C264.6 30.216 263.456 30.0678 262.176 30.0678C260.984 30.0678 259.911 30.3148 258.958 30.8134C258.005 31.3075 257.256 32.0172 256.702 32.938C256.153 33.8588 255.874 34.9324 255.874 36.1586C255.874 37.3849 256.126 38.4898 256.636 39.4196C257.141 40.3494 257.859 41.0636 258.785 41.5712C259.712 42.0742 260.78 42.3303 261.99 42.3303C263.093 42.3303 264.055 42.1326 264.87 41.7374V38.0856H261.852V35.0536H268.792V44.1719C267.033 45.3981 264.711 46.0135 261.826 46.0135C259.831 46.0135 258.072 45.6137 256.543 44.8097L256.547 44.7962Z" fill="#020202"/>
</g>
<defs>
<clipPath id="clip0_134_113">
<rect width="286" height="46" fill="white" transform="translate(0.0402832)"/>
</clipPath>
</defs>
</svg>
